<mxfile host="65bd71144e">
    <diagram id="QC_K1ldVG2hn_nloIkqu" name="Page-1">
        <mxGraphModel dx="2101" dy="961" grid="1" gridSize="10" guides="1" tooltips="1" connect="1" arrows="1" fold="1" page="1" pageScale="1" pageWidth="850" pageHeight="1100" math="0" shadow="0">
            <root>
                <mxCell id="0"/>
                <mxCell id="1" parent="0"/>
                <mxCell id="68" style="edgeStyle=none;html=1;exitX=1;exitY=0.5;exitDx=0;exitDy=0;fontSize=12;" edge="1" parent="1" source="5" target="43">
                    <mxGeometry relative="1" as="geometry"/>
                </mxCell>
                <mxCell id="69" value="Own 1" style="edgeLabel;html=1;align=center;verticalAlign=middle;resizable=0;points=[];fontSize=12;" vertex="1" connectable="0" parent="68">
                    <mxGeometry x="-0.4278" y="-1" relative="1" as="geometry">
                        <mxPoint x="18" y="-12" as="offset"/>
                    </mxGeometry>
                </mxCell>
                <mxCell id="70" style="edgeStyle=none;html=1;exitX=1;exitY=0.5;exitDx=0;exitDy=0;entryX=0;entryY=0.5;entryDx=0;entryDy=0;fontSize=12;" edge="1" parent="1" source="5" target="44">
                    <mxGeometry relative="1" as="geometry"/>
                </mxCell>
                <mxCell id="71" value="Own 1" style="edgeLabel;html=1;align=center;verticalAlign=middle;resizable=0;points=[];fontSize=12;" vertex="1" connectable="0" parent="70">
                    <mxGeometry x="-0.2195" relative="1" as="geometry">
                        <mxPoint x="7" y="1" as="offset"/>
                    </mxGeometry>
                </mxCell>
                <mxCell id="5" value="Cow" style="swimlane;fontStyle=0;childLayout=stackLayout;horizontal=1;startSize=30;horizontalStack=0;resizeParent=1;resizeParentMax=0;resizeLast=0;collapsible=1;marginBottom=0;whiteSpace=wrap;html=1;fillColor=#6d8764;fontColor=#ffffff;strokeColor=#3A5431;" vertex="1" parent="1">
                    <mxGeometry x="40" y="60" width="240" height="60" as="geometry"/>
                </mxCell>
                <mxCell id="6" value="Produces milk." style="text;strokeColor=#3A5431;fillColor=#6d8764;align=left;verticalAlign=middle;spacingLeft=4;spacingRight=4;overflow=hidden;points=[[0,0.5],[1,0.5]];portConstraint=eastwest;rotatable=0;whiteSpace=wrap;html=1;fontColor=#ffffff;" vertex="1" parent="5">
                    <mxGeometry y="30" width="240" height="30" as="geometry"/>
                </mxCell>
                <mxCell id="13" value="Milk Burglar" style="swimlane;fontStyle=0;childLayout=stackLayout;horizontal=1;startSize=30;horizontalStack=0;resizeParent=1;resizeParentMax=0;resizeLast=0;collapsible=1;marginBottom=0;whiteSpace=wrap;html=1;fillColor=#6d8764;fontColor=#ffffff;strokeColor=#3A5431;" vertex="1" parent="1">
                    <mxGeometry x="40" y="160" width="240" height="90" as="geometry"/>
                </mxCell>
                <mxCell id="14" value="A hired contractor paid to steal milk from the homes of innocent unsuspecting families." style="text;strokeColor=#3A5431;fillColor=#6d8764;align=left;verticalAlign=middle;spacingLeft=4;spacingRight=4;overflow=hidden;points=[[0,0.5],[1,0.5]];portConstraint=eastwest;rotatable=0;whiteSpace=wrap;html=1;aspect=fixed;fontColor=#ffffff;" vertex="1" parent="13">
                    <mxGeometry y="30" width="240" height="60" as="geometry"/>
                </mxCell>
                <mxCell id="15" value="Milk Mine" style="swimlane;fontStyle=0;childLayout=stackLayout;horizontal=1;startSize=30;horizontalStack=0;resizeParent=1;resizeParentMax=0;resizeLast=0;collapsible=1;marginBottom=0;whiteSpace=wrap;html=1;fillColor=#6d8764;fontColor=#ffffff;strokeColor=#3A5431;" vertex="1" parent="1">
                    <mxGeometry x="40" y="270" width="240" height="81.25" as="geometry"/>
                </mxCell>
                <mxCell id="16" value="Extract milk from frozen cows by cutting them open and scooping it out." style="text;strokeColor=#3A5431;fillColor=#6d8764;align=left;verticalAlign=middle;spacingLeft=4;spacingRight=4;overflow=hidden;points=[[0,0.5],[1,0.5]];portConstraint=eastwest;rotatable=0;whiteSpace=wrap;html=1;aspect=fixed;fontColor=#ffffff;" vertex="1" parent="15">
                    <mxGeometry y="30" width="240" height="51.25" as="geometry"/>
                </mxCell>
                <mxCell id="18" value="Bluetooth Udders" style="swimlane;fontStyle=0;childLayout=stackLayout;horizontal=1;startSize=30;horizontalStack=0;resizeParent=1;resizeParentMax=0;resizeLast=0;collapsible=1;marginBottom=0;whiteSpace=wrap;html=1;fillColor=#6d8764;fontColor=#ffffff;strokeColor=#3A5431;" vertex="1" parent="1">
                    <mxGeometry x="40" y="370" width="240" height="76.25" as="geometry">
                        <mxRectangle x="40" y="370" width="130" height="30" as="alternateBounds"/>
                    </mxGeometry>
                </mxCell>
                <mxCell id="19" value="Produces milk without the need to feed or store a full blown cow." style="text;strokeColor=#3A5431;fillColor=#6d8764;align=left;verticalAlign=middle;spacingLeft=4;spacingRight=4;overflow=hidden;points=[[0,0.5],[1,0.5]];portConstraint=eastwest;rotatable=0;whiteSpace=wrap;html=1;aspect=fixed;fontColor=#ffffff;" vertex="1" parent="18">
                    <mxGeometry y="30" width="240" height="46.25" as="geometry"/>
                </mxCell>
                <mxCell id="86" style="edgeStyle=none;html=1;exitX=1;exitY=0.5;exitDx=0;exitDy=0;entryX=0;entryY=0.5;entryDx=0;entryDy=0;fontSize=12;" edge="1" parent="1" source="20" target="52">
                    <mxGeometry relative="1" as="geometry"/>
                </mxCell>
                <mxCell id="87" value="50+ Milkologists" style="edgeLabel;html=1;align=center;verticalAlign=middle;resizable=0;points=[];fontSize=12;" vertex="1" connectable="0" parent="86">
                    <mxGeometry x="-0.5302" y="1" relative="1" as="geometry">
                        <mxPoint x="39" y="1" as="offset"/>
                    </mxGeometry>
                </mxCell>
                <mxCell id="20" value="Milkologist" style="swimlane;fontStyle=0;childLayout=stackLayout;horizontal=1;startSize=30;horizontalStack=0;resizeParent=1;resizeParentMax=0;resizeLast=0;collapsible=1;marginBottom=0;whiteSpace=wrap;html=1;swimlaneLine=1;swimlaneHead=1;connectable=1;dropTarget=1;autosize=0;fixedWidth=0;movableLabel=0;treeFolding=0;treeMoving=0;pointerEvents=1;moveCells=0;enumerate=0;comic=0;fillColor=#6d8764;fontColor=#ffffff;strokeColor=#3A5431;" vertex="1" parent="1">
                    <mxGeometry x="40" y="470" width="240" height="90" as="geometry">
                        <mxRectangle x="40" y="470" width="100" height="30" as="alternateBounds"/>
                    </mxGeometry>
                </mxCell>
                <mxCell id="21" value="A specialist that can turn water into milk, the same way Jesus turned water into wine." style="text;strokeColor=#3A5431;fillColor=#6d8764;align=left;verticalAlign=middle;spacingLeft=4;spacingRight=4;overflow=hidden;points=[[0,0.5],[1,0.5]];portConstraint=eastwest;rotatable=0;portConstraintRotation=0;recursiveResize=1;whiteSpace=wrap;html=1;horizontal=1;rounded=0;glass=0;expand=1;part=0;autosize=0;resizable=1;resizeHeight=0;treeFolding=0;aspect=fixed;fontColor=#ffffff;" vertex="1" parent="20">
                    <mxGeometry y="30" width="240" height="60" as="geometry"/>
                </mxCell>
                <mxCell id="94" style="edgeStyle=none;html=1;entryX=0;entryY=0.5;entryDx=0;entryDy=0;fontSize=12;" edge="1" parent="1" source="25" target="53">
                    <mxGeometry relative="1" as="geometry"/>
                </mxCell>
                <mxCell id="95" value="1+" style="edgeLabel;html=1;align=center;verticalAlign=middle;resizable=0;points=[];fontSize=12;" vertex="1" connectable="0" parent="94">
                    <mxGeometry x="-0.4077" y="-2" relative="1" as="geometry">
                        <mxPoint x="30" y="-2" as="offset"/>
                    </mxGeometry>
                </mxCell>
                <mxCell id="25" value="Atmospheric Milk Generator" style="swimlane;fontStyle=0;childLayout=stackLayout;horizontal=1;startSize=30;horizontalStack=0;resizeParent=1;resizeParentMax=0;resizeLast=0;collapsible=1;marginBottom=0;whiteSpace=wrap;html=1;swimlaneLine=1;swimlaneHead=1;connectable=1;dropTarget=1;autosize=0;fixedWidth=0;movableLabel=0;treeFolding=0;treeMoving=0;pointerEvents=1;moveCells=0;enumerate=0;comic=0;fillColor=#6d8764;fontColor=#ffffff;strokeColor=#3A5431;" vertex="1" parent="1">
                    <mxGeometry x="40" y="590" width="240" height="90" as="geometry">
                        <mxRectangle x="40" y="470" width="100" height="30" as="alternateBounds"/>
                    </mxGeometry>
                </mxCell>
                <mxCell id="26" value="Extracts milk from the air via a method of condensation. Note: vergan." style="text;strokeColor=#3A5431;fillColor=#6d8764;align=left;verticalAlign=middle;spacingLeft=4;spacingRight=4;overflow=hidden;points=[[0,0.5],[1,0.5]];portConstraint=eastwest;rotatable=0;portConstraintRotation=0;recursiveResize=1;whiteSpace=wrap;html=1;horizontal=1;rounded=0;glass=0;expand=1;part=0;autosize=0;resizable=1;resizeHeight=0;treeFolding=0;aspect=fixed;fontColor=#ffffff;" vertex="1" parent="25">
                    <mxGeometry y="30" width="240" height="60" as="geometry"/>
                </mxCell>
                <mxCell id="27" value="Milk Photosynthesizer" style="swimlane;fontStyle=0;childLayout=stackLayout;horizontal=1;startSize=30;horizontalStack=0;resizeParent=1;resizeParentMax=0;resizeLast=0;collapsible=1;marginBottom=0;whiteSpace=wrap;html=1;swimlaneLine=1;swimlaneHead=1;connectable=1;dropTarget=1;autosize=0;fixedWidth=0;movableLabel=0;treeFolding=0;treeMoving=0;pointerEvents=1;moveCells=0;enumerate=0;comic=0;fillColor=#6d8764;fontColor=#ffffff;strokeColor=#3A5431;" vertex="1" parent="1">
                    <mxGeometry x="40" y="720" width="240" height="90" as="geometry">
                        <mxRectangle x="40" y="470" width="100" height="30" as="alternateBounds"/>
                    </mxGeometry>
                </mxCell>
                <mxCell id="28" value="Takes the heat of the sun and performs a special process on it to convert it to milk." style="text;strokeColor=#3A5431;fillColor=#6d8764;align=left;verticalAlign=middle;spacingLeft=4;spacingRight=4;overflow=hidden;points=[[0,0.5],[1,0.5]];portConstraint=eastwest;rotatable=0;portConstraintRotation=0;recursiveResize=1;whiteSpace=wrap;html=1;horizontal=1;rounded=0;glass=0;expand=1;part=0;autosize=0;resizable=1;resizeHeight=0;treeFolding=0;aspect=fixed;fontColor=#ffffff;" vertex="1" parent="27">
                    <mxGeometry y="30" width="240" height="60" as="geometry"/>
                </mxCell>
                <mxCell id="98" value="" style="edgeStyle=none;html=1;fontSize=12;" edge="1" parent="1" source="29" target="58">
                    <mxGeometry relative="1" as="geometry"/>
                </mxCell>
                <mxCell id="99" value="1+" style="edgeLabel;html=1;align=center;verticalAlign=middle;resizable=0;points=[];fontSize=12;" vertex="1" connectable="0" parent="98">
                    <mxGeometry x="-0.4123" y="1" relative="1" as="geometry">
                        <mxPoint x="16" y="1" as="offset"/>
                    </mxGeometry>
                </mxCell>
                <mxCell id="29" value="Particle Accelerator" style="swimlane;fontStyle=0;childLayout=stackLayout;horizontal=1;startSize=30;horizontalStack=0;resizeParent=1;resizeParentMax=0;resizeLast=0;collapsible=1;marginBottom=0;whiteSpace=wrap;html=1;swimlaneLine=1;swimlaneHead=1;connectable=1;dropTarget=1;autosize=0;fixedWidth=0;movableLabel=0;treeFolding=0;treeMoving=0;pointerEvents=1;moveCells=0;enumerate=0;comic=0;fillColor=#6d8764;fontColor=#ffffff;strokeColor=#3A5431;" vertex="1" parent="1">
                    <mxGeometry x="40" y="850" width="240" height="90" as="geometry">
                        <mxRectangle x="40" y="470" width="100" height="30" as="alternateBounds"/>
                    </mxGeometry>
                </mxCell>
                <mxCell id="30" value="Beam particles together to alter the forms of matter into milk." style="text;strokeColor=#3A5431;fillColor=#6d8764;align=left;verticalAlign=middle;spacingLeft=4;spacingRight=4;overflow=hidden;points=[[0,0.5],[1,0.5]];portConstraint=eastwest;rotatable=0;portConstraintRotation=0;recursiveResize=1;whiteSpace=wrap;html=1;horizontal=1;rounded=0;glass=0;expand=1;part=0;autosize=0;resizable=1;resizeHeight=0;treeFolding=0;aspect=fixed;fontColor=#ffffff;" vertex="1" parent="29">
                    <mxGeometry y="30" width="240" height="60" as="geometry"/>
                </mxCell>
                <mxCell id="31" value="Exoplanet" style="swimlane;fontStyle=0;childLayout=stackLayout;horizontal=1;startSize=30;horizontalStack=0;resizeParent=1;resizeParentMax=0;resizeLast=0;collapsible=1;marginBottom=0;whiteSpace=wrap;html=1;swimlaneLine=1;swimlaneHead=1;connectable=1;dropTarget=1;autosize=0;fixedWidth=0;movableLabel=0;treeFolding=0;treeMoving=0;pointerEvents=1;moveCells=0;enumerate=0;comic=0;fillColor=#6d8764;fontColor=#ffffff;strokeColor=#3A5431;" vertex="1" parent="1">
                    <mxGeometry x="40" y="980" width="240" height="90" as="geometry">
                        <mxRectangle x="40" y="470" width="100" height="30" as="alternateBounds"/>
                    </mxGeometry>
                </mxCell>
                <mxCell id="32" value="Planets where the atmosphere is primarily made from milk." style="text;strokeColor=#3A5431;fillColor=#6d8764;align=left;verticalAlign=middle;spacingLeft=4;spacingRight=4;overflow=hidden;points=[[0,0.5],[1,0.5]];portConstraint=eastwest;rotatable=0;portConstraintRotation=0;recursiveResize=1;whiteSpace=wrap;html=1;horizontal=1;rounded=0;glass=0;expand=1;part=0;autosize=0;resizable=1;resizeHeight=0;treeFolding=0;aspect=fixed;fontColor=#ffffff;" vertex="1" parent="31">
                    <mxGeometry y="30" width="240" height="60" as="geometry"/>
                </mxCell>
                <mxCell id="104" style="edgeStyle=none;html=1;entryX=0;entryY=0.5;entryDx=0;entryDy=0;fontSize=12;" edge="1" parent="1" source="33" target="63">
                    <mxGeometry relative="1" as="geometry"/>
                </mxCell>
                <mxCell id="105" value="1+" style="edgeLabel;html=1;align=center;verticalAlign=middle;resizable=0;points=[];fontSize=12;" vertex="1" connectable="0" parent="104">
                    <mxGeometry x="-0.4409" y="-3" relative="1" as="geometry">
                        <mxPoint x="16" y="-3" as="offset"/>
                    </mxGeometry>
                </mxCell>
                <mxCell id="108" style="edgeStyle=none;html=1;exitX=1;exitY=0.5;exitDx=0;exitDy=0;entryX=0;entryY=0.5;entryDx=0;entryDy=0;fontSize=12;" edge="1" parent="1" source="33" target="60">
                    <mxGeometry relative="1" as="geometry"/>
                </mxCell>
                <mxCell id="109" value="1+" style="edgeLabel;html=1;align=center;verticalAlign=middle;resizable=0;points=[];fontSize=12;" vertex="1" connectable="0" parent="108">
                    <mxGeometry x="0.5154" relative="1" as="geometry">
                        <mxPoint y="-1" as="offset"/>
                    </mxGeometry>
                </mxCell>
                <mxCell id="112" style="edgeStyle=none;html=1;exitX=1;exitY=0.5;exitDx=0;exitDy=0;entryX=0;entryY=0.5;entryDx=0;entryDy=0;fontSize=12;" edge="1" parent="1" source="33" target="66">
                    <mxGeometry relative="1" as="geometry"/>
                </mxCell>
                <mxCell id="113" value="5+" style="edgeLabel;html=1;align=center;verticalAlign=middle;resizable=0;points=[];fontSize=12;" vertex="1" connectable="0" parent="112">
                    <mxGeometry x="0.315" y="-2" relative="1" as="geometry">
                        <mxPoint x="15" y="11" as="offset"/>
                    </mxGeometry>
                </mxCell>
                <mxCell id="33" value="Max" style="swimlane;fontStyle=0;childLayout=stackLayout;horizontal=1;startSize=30;horizontalStack=0;resizeParent=1;resizeParentMax=0;resizeLast=0;collapsible=1;marginBottom=0;whiteSpace=wrap;html=1;swimlaneLine=1;swimlaneHead=1;connectable=1;dropTarget=1;autosize=0;fixedWidth=0;movableLabel=0;treeFolding=0;treeMoving=0;pointerEvents=1;moveCells=0;enumerate=0;comic=0;fillColor=#6d8764;fontColor=#ffffff;strokeColor=#3A5431;" vertex="1" parent="1">
                    <mxGeometry x="40" y="1160" width="240" height="90" as="geometry">
                        <mxRectangle x="40" y="470" width="100" height="30" as="alternateBounds"/>
                    </mxGeometry>
                </mxCell>
                <mxCell id="34" value="Converts matter into milk by looking at it." style="text;strokeColor=#3A5431;fillColor=#6d8764;align=left;verticalAlign=middle;spacingLeft=4;spacingRight=4;overflow=hidden;points=[[0,0.5],[1,0.5]];portConstraint=eastwest;rotatable=0;portConstraintRotation=0;recursiveResize=1;whiteSpace=wrap;html=1;horizontal=1;rounded=0;glass=0;expand=1;part=0;autosize=0;resizable=1;resizeHeight=0;treeFolding=0;aspect=fixed;fontColor=#ffffff;" vertex="1" parent="33">
                    <mxGeometry y="30" width="240" height="60" as="geometry"/>
                </mxCell>
                <mxCell id="75" style="edgeStyle=none;html=1;fontSize=12;" edge="1" parent="1" source="42" target="46">
                    <mxGeometry relative="1" as="geometry"/>
                </mxCell>
                <mxCell id="76" value="1+ Milkologist" style="edgeLabel;html=1;align=center;verticalAlign=middle;resizable=0;points=[];fontSize=12;" vertex="1" connectable="0" parent="75">
                    <mxGeometry x="-0.5348" y="1" relative="1" as="geometry">
                        <mxPoint x="29" y="1" as="offset"/>
                    </mxGeometry>
                </mxCell>
                <mxCell id="42" value="DIY Dairy" style="rounded=0;whiteSpace=wrap;html=1;glass=0;comic=0;pointerEvents=1;strokeColor=default;fontSize=12;fillColor=default;" vertex="1" parent="1">
                    <mxGeometry x="-90" y="1270" width="120" height="60" as="geometry"/>
                </mxCell>
                <mxCell id="72" style="edgeStyle=none;html=1;entryX=0;entryY=0.5;entryDx=0;entryDy=0;fontSize=12;" edge="1" parent="1" source="43" target="45">
                    <mxGeometry relative="1" as="geometry"/>
                </mxCell>
                <mxCell id="43" value="Scientifically Accurate Cows" style="rounded=0;whiteSpace=wrap;html=1;glass=0;comic=0;pointerEvents=1;strokeColor=default;fontSize=12;fillColor=default;" vertex="1" parent="1">
                    <mxGeometry x="390" y="10" width="120" height="60" as="geometry"/>
                </mxCell>
                <mxCell id="88" style="edgeStyle=none;html=1;entryX=0;entryY=0.5;entryDx=0;entryDy=0;fontSize=12;" edge="1" parent="1" source="44" target="51">
                    <mxGeometry relative="1" as="geometry"/>
                </mxCell>
                <mxCell id="93" value="5+ Milk Burglars&lt;br&gt;5+ Milkologists" style="edgeLabel;html=1;align=center;verticalAlign=middle;resizable=0;points=[];fontSize=12;" vertex="1" connectable="0" parent="88">
                    <mxGeometry x="-0.4434" y="-4" relative="1" as="geometry">
                        <mxPoint x="29" y="-4" as="offset"/>
                    </mxGeometry>
                </mxCell>
                <mxCell id="44" value="Rental Agreement Contract" style="rounded=0;whiteSpace=wrap;html=1;glass=0;comic=0;pointerEvents=1;strokeColor=default;fontSize=12;fillColor=default;" vertex="1" parent="1">
                    <mxGeometry x="390" y="110" width="120" height="60" as="geometry"/>
                </mxCell>
                <mxCell id="73" style="edgeStyle=none;html=1;entryX=0;entryY=0.5;entryDx=0;entryDy=0;fontSize=12;" edge="1" parent="1" source="45" target="47">
                    <mxGeometry relative="1" as="geometry"/>
                </mxCell>
                <mxCell id="74" value="1+ Bluetooth Udder&lt;br&gt;1+ Milkologist" style="edgeLabel;html=1;align=center;verticalAlign=middle;resizable=0;points=[];fontSize=12;" vertex="1" connectable="0" parent="73">
                    <mxGeometry x="-0.4035" y="1" relative="1" as="geometry">
                        <mxPoint x="38" y="1" as="offset"/>
                    </mxGeometry>
                </mxCell>
                <mxCell id="45" value="High Lactation Cows" style="rounded=0;whiteSpace=wrap;html=1;glass=0;comic=0;pointerEvents=1;strokeColor=default;fontSize=12;fillColor=default;" vertex="1" parent="1">
                    <mxGeometry x="590" y="10" width="120" height="60" as="geometry"/>
                </mxCell>
                <mxCell id="116" style="edgeStyle=none;html=1;exitX=1;exitY=0.5;exitDx=0;exitDy=0;entryX=0;entryY=0.5;entryDx=0;entryDy=0;fontSize=12;" edge="1" parent="1" source="46" target="66">
                    <mxGeometry relative="1" as="geometry"/>
                </mxCell>
                <mxCell id="46" value="Delicious Dairy" style="rounded=0;whiteSpace=wrap;html=1;glass=0;comic=0;pointerEvents=1;strokeColor=default;fontSize=12;fillColor=default;" vertex="1" parent="1">
                    <mxGeometry x="160" y="1270" width="120" height="60" as="geometry"/>
                </mxCell>
                <mxCell id="47" value="Turing Cows" style="rounded=0;whiteSpace=wrap;html=1;glass=0;comic=0;pointerEvents=1;strokeColor=default;fontSize=12;fillColor=default;" vertex="1" parent="1">
                    <mxGeometry x="880" y="10" width="120" height="60" as="geometry"/>
                </mxCell>
                <mxCell id="83" style="edgeStyle=none;html=1;entryX=0;entryY=0.5;entryDx=0;entryDy=0;fontSize=12;" edge="1" parent="1" source="48" target="49">
                    <mxGeometry relative="1" as="geometry"/>
                </mxCell>
                <mxCell id="84" value="5+ Milk Burglars" style="edgeLabel;html=1;align=center;verticalAlign=middle;resizable=0;points=[];fontSize=12;" vertex="1" connectable="0" parent="83">
                    <mxGeometry x="-0.4349" y="-1" relative="1" as="geometry">
                        <mxPoint x="25" y="-1" as="offset"/>
                    </mxGeometry>
                </mxCell>
                <mxCell id="48" value="Automoobiles" style="rounded=0;whiteSpace=wrap;html=1;glass=0;comic=0;pointerEvents=1;strokeColor=default;fontSize=12;fillColor=default;" vertex="1" parent="1">
                    <mxGeometry x="1175" y="510" width="120" height="60" as="geometry"/>
                </mxCell>
                <mxCell id="49" value="Milk Mobiler" style="rounded=0;whiteSpace=wrap;html=1;glass=0;comic=0;pointerEvents=1;strokeColor=default;fontSize=12;fillColor=default;" vertex="1" parent="1">
                    <mxGeometry x="1420" y="510" width="120" height="60" as="geometry"/>
                </mxCell>
                <mxCell id="50" value="“Incentives”" style="rounded=0;whiteSpace=wrap;html=1;glass=0;comic=0;pointerEvents=1;strokeColor=default;fontSize=12;fillColor=default;" vertex="1" parent="1">
                    <mxGeometry x="1175" y="650" width="120" height="60" as="geometry"/>
                </mxCell>
                <mxCell id="96" style="edgeStyle=none;html=1;entryX=0;entryY=0.5;entryDx=0;entryDy=0;fontSize=12;" edge="1" parent="1" source="51" target="56">
                    <mxGeometry relative="1" as="geometry"/>
                </mxCell>
                <mxCell id="97" value="1+ Blutooth Udder&lt;br&gt;1+ Atmospheric Milk Generator&lt;br&gt;1+ Milk Photosynthesizer&lt;br&gt;1+ Particle Accelerator" style="edgeLabel;html=1;align=center;verticalAlign=middle;resizable=0;points=[];fontSize=12;" vertex="1" connectable="0" parent="96">
                    <mxGeometry x="-0.6396" y="-3" relative="1" as="geometry">
                        <mxPoint x="69" y="-3" as="offset"/>
                    </mxGeometry>
                </mxCell>
                <mxCell id="51" value="Employment Contract" style="rounded=0;whiteSpace=wrap;html=1;glass=0;comic=0;pointerEvents=1;strokeColor=default;fontSize=12;fillColor=default;" vertex="1" parent="1">
                    <mxGeometry x="660" y="110" width="120" height="60" as="geometry"/>
                </mxCell>
                <mxCell id="52" value="Lactose no more" style="rounded=0;whiteSpace=wrap;html=1;glass=0;comic=0;pointerEvents=1;strokeColor=default;fontSize=12;fillColor=default;" vertex="1" parent="1">
                    <mxGeometry x="415" y="485" width="120" height="60" as="geometry"/>
                </mxCell>
                <mxCell id="53" value="Milk Volcano" style="rounded=0;whiteSpace=wrap;html=1;glass=0;comic=0;pointerEvents=1;strokeColor=default;fontSize=12;fillColor=default;" vertex="1" parent="1">
                    <mxGeometry x="415" y="605" width="120" height="60" as="geometry"/>
                </mxCell>
                <mxCell id="56" value="Milk Smart Contracts" style="rounded=0;whiteSpace=wrap;html=1;glass=0;comic=0;pointerEvents=1;strokeColor=default;fontSize=12;fillColor=default;" vertex="1" parent="1">
                    <mxGeometry x="1010" y="110" width="120" height="60" as="geometry"/>
                </mxCell>
                <mxCell id="101" style="edgeStyle=none;html=1;entryX=0;entryY=0.5;entryDx=0;entryDy=0;fontSize=12;" edge="1" parent="1" source="57" target="59">
                    <mxGeometry relative="1" as="geometry"/>
                </mxCell>
                <mxCell id="57" value="Really Long Tubes" style="rounded=0;whiteSpace=wrap;html=1;glass=0;comic=0;pointerEvents=1;strokeColor=default;fontSize=12;fillColor=default;" vertex="1" parent="1">
                    <mxGeometry x="365" y="1010" width="120" height="60" as="geometry"/>
                </mxCell>
                <mxCell id="58" value="Fire Faster" style="rounded=0;whiteSpace=wrap;html=1;glass=0;comic=0;pointerEvents=1;strokeColor=default;fontSize=12;fillColor=default;" vertex="1" parent="1">
                    <mxGeometry x="360" y="865" width="120" height="60" as="geometry"/>
                </mxCell>
                <mxCell id="59" value="Really Really Long Tubes" style="rounded=0;whiteSpace=wrap;html=1;glass=0;comic=0;pointerEvents=1;strokeColor=default;fontSize=12;fillColor=default;" vertex="1" parent="1">
                    <mxGeometry x="570" y="1010" width="120" height="60" as="geometry"/>
                </mxCell>
                <mxCell id="60" value="MILKyway Galaxy" style="rounded=0;whiteSpace=wrap;html=1;glass=0;comic=0;pointerEvents=1;strokeColor=default;fontSize=12;fillColor=default;" vertex="1" parent="1">
                    <mxGeometry x="365" y="1090" width="120" height="60" as="geometry"/>
                </mxCell>
                <mxCell id="61" value="Milk Prophecy" style="rounded=0;whiteSpace=wrap;html=1;glass=0;comic=0;pointerEvents=1;strokeColor=default;fontSize=12;fillColor=default;" vertex="1" parent="1">
                    <mxGeometry x="1175" y="730" width="120" height="60" as="geometry"/>
                </mxCell>
                <mxCell id="62" value="Night Vision Goggles" style="rounded=0;whiteSpace=wrap;html=1;glass=0;comic=0;pointerEvents=1;strokeColor=default;fontSize=12;fillColor=default;" vertex="1" parent="1">
                    <mxGeometry x="760" y="1175" width="120" height="60" as="geometry"/>
                </mxCell>
                <mxCell id="106" style="edgeStyle=none;html=1;entryX=0;entryY=0.5;entryDx=0;entryDy=0;fontSize=12;" edge="1" parent="1" source="63" target="64">
                    <mxGeometry relative="1" as="geometry"/>
                </mxCell>
                <mxCell id="63" value="Glasses" style="rounded=0;whiteSpace=wrap;html=1;glass=0;comic=0;pointerEvents=1;strokeColor=default;fontSize=12;fillColor=default;" vertex="1" parent="1">
                    <mxGeometry x="365" y="1175" width="120" height="60" as="geometry"/>
                </mxCell>
                <mxCell id="107" style="edgeStyle=none;html=1;entryX=0;entryY=0.5;entryDx=0;entryDy=0;fontSize=12;" edge="1" parent="1" source="64" target="62">
                    <mxGeometry relative="1" as="geometry"/>
                </mxCell>
                <mxCell id="64" value="Telescopic Glasses" style="rounded=0;whiteSpace=wrap;html=1;glass=0;comic=0;pointerEvents=1;strokeColor=default;fontSize=12;fillColor=default;" vertex="1" parent="1">
                    <mxGeometry x="570" y="1175" width="120" height="60" as="geometry"/>
                </mxCell>
                <mxCell id="66" value="Divine Dairy" style="rounded=0;whiteSpace=wrap;html=1;glass=0;comic=0;pointerEvents=1;strokeColor=default;fontSize=12;fillColor=default;" vertex="1" parent="1">
                    <mxGeometry x="365" y="1270" width="120" height="60" as="geometry"/>
                </mxCell>
                <mxCell id="82" style="edgeStyle=none;html=1;entryX=0;entryY=0.5;entryDx=0;entryDy=0;fontSize=12;" edge="1" parent="1" source="79" target="48">
                    <mxGeometry relative="1" as="geometry"/>
                </mxCell>
                <mxCell id="79" value="Tier 2 Milk" style="rounded=0;whiteSpace=wrap;html=1;glass=0;comic=0;pointerEvents=1;strokeColor=#432D57;fontSize=12;fillColor=#76608a;fontColor=#ffffff;" vertex="1" parent="1">
                    <mxGeometry x="950" y="510" width="120" height="60" as="geometry"/>
                </mxCell>
                <mxCell id="85" style="edgeStyle=none;html=1;fontSize=12;" edge="1" parent="1" source="80" target="50">
                    <mxGeometry relative="1" as="geometry"/>
                </mxCell>
                <mxCell id="103" style="edgeStyle=none;html=1;entryX=0;entryY=0.5;entryDx=0;entryDy=0;fontSize=12;" edge="1" parent="1" source="80" target="61">
                    <mxGeometry relative="1" as="geometry"/>
                </mxCell>
                <mxCell id="80" value="Tier 3 Milk" style="rounded=0;whiteSpace=wrap;html=1;glass=0;comic=0;pointerEvents=1;strokeColor=#432D57;fontSize=12;fillColor=#76608a;fontColor=#ffffff;" vertex="1" parent="1">
                    <mxGeometry x="950" y="680" width="120" height="60" as="geometry"/>
                </mxCell>
                <mxCell id="100" style="edgeStyle=none;html=1;entryX=0;entryY=0.5;entryDx=0;entryDy=0;fontSize=12;" edge="1" parent="1" source="32" target="57">
                    <mxGeometry relative="1" as="geometry"/>
                </mxCell>
                <mxCell id="102" value="5+" style="edgeLabel;html=1;align=center;verticalAlign=middle;resizable=0;points=[];fontSize=12;" vertex="1" connectable="0" parent="100">
                    <mxGeometry x="-0.3269" y="-3" relative="1" as="geometry">
                        <mxPoint x="12" y="-3" as="offset"/>
                    </mxGeometry>
                </mxCell>
                <mxCell id="110" style="edgeStyle=none;html=1;exitX=1;exitY=0.5;exitDx=0;exitDy=0;entryX=0;entryY=0.5;entryDx=0;entryDy=0;fontSize=12;" edge="1" parent="1" source="32" target="60">
                    <mxGeometry relative="1" as="geometry"/>
                </mxCell>
                <mxCell id="111" value="20+" style="edgeLabel;html=1;align=center;verticalAlign=middle;resizable=0;points=[];fontSize=12;" vertex="1" connectable="0" parent="110">
                    <mxGeometry x="0.5583" relative="1" as="geometry">
                        <mxPoint x="-2" y="-2" as="offset"/>
                    </mxGeometry>
                </mxCell>
            </root>
        </mxGraphModel>
    </diagram>
</mxfile>